<svg width="21" height="14" viewBox="0 0 19 14" fill="#777777" xmlns="http://www.w3.org/2000/svg">
	<path className="hidePasswordSvg" d="M6.97233 7C6.97233 7.63782 7.22945 8.24952 7.68713 8.70053C8.14482 9.15154 8.76557 9.40491 9.41283 9.40491C10.0601 9.40491 10.6809 9.15154 11.1385 8.70053C11.5962 8.24952 11.8533 7.63782 11.8533 7C11.8533 6.36218 11.5962 5.75048 11.1385 5.29947C10.6809 4.84847 10.0601 4.59509 9.41283 4.59509C8.76557 4.59509 8.14482 4.84847 7.68713 5.29947C7.22945 5.75048 6.97233 6.36218 6.97233 7ZM18.8742 6.44601C16.8084 2.15798 13.6859 0 9.5 0C5.31191 0 2.19154 2.15798 0.125828 6.44816C0.0429718 6.62105 0 6.80987 0 7.00107C0 7.19227 0.0429718 7.3811 0.125828 7.55399C2.19154 11.842 5.31409 14 9.5 14C13.6881 14 16.8084 11.842 18.8742 7.55184C19.0419 7.20399 19.0419 6.80031 18.8742 6.44601ZM9.41283 10.7791C7.29482 10.7791 5.57775 9.08712 5.57775 7C5.57775 4.91288 7.29482 3.22086 9.41283 3.22086C11.5308 3.22086 13.2479 4.91288 13.2479 7C13.2479 9.08712 11.5308 10.7791 9.41283 10.7791Z"/>
</svg>