<svg width="22" height="22" viewBox="0 0 22 22" fill="none" xmlns="http://www.w3.org/2000/svg">
<path d="M10.914 13.4062C11.5522 13.4062 12.1642 13.1527 12.6155 12.7015C13.0667 12.2502 13.3203 11.6382 13.3203 11C13.3203 10.9295 13.317 10.8597 13.311 10.7907L10.7047 13.397C10.7737 13.403 10.8433 13.4062 10.914 13.4062ZM18.8787 3.55695L17.9609 2.63999C17.9286 2.60778 17.8849 2.58969 17.8394 2.58969C17.7938 2.58969 17.7501 2.60778 17.7179 2.63999L15.3692 4.98931C14.0736 4.32716 12.6171 3.99609 10.9999 3.99609C6.87064 3.99609 3.78978 6.14667 1.75736 10.4478C1.67567 10.6208 1.6333 10.8098 1.6333 11.0011C1.6333 11.1924 1.67567 11.3813 1.75736 11.5543C2.56947 13.2649 3.54737 14.6359 4.69105 15.6675L2.41822 17.9394C2.38601 17.9717 2.36792 18.0154 2.36792 18.0609C2.36792 18.1065 2.38601 18.1502 2.41822 18.1824L3.33539 19.0996C3.36762 19.1318 3.41132 19.1499 3.45688 19.1499C3.50245 19.1499 3.54615 19.1318 3.57838 19.0996L18.8787 3.80015C18.8947 3.78419 18.9073 3.76523 18.916 3.74436C18.9246 3.7235 18.9291 3.70113 18.9291 3.67855C18.9291 3.65596 18.9246 3.63359 18.916 3.61273C18.9073 3.59186 18.8947 3.57291 18.8787 3.55695ZM7.13275 11C7.13269 10.3469 7.3018 9.70489 7.6236 9.13656C7.9454 8.56822 8.40892 8.09294 8.96901 7.75699C9.52909 7.42104 10.1666 7.23589 10.8196 7.21958C11.4725 7.20326 12.1185 7.35634 12.6946 7.6639L11.6501 8.70847C11.2288 8.57358 10.7785 8.55734 10.3486 8.66152C9.91873 8.7657 9.52584 8.98628 9.21306 9.29905C8.90029 9.61183 8.67971 10.0047 8.57553 10.4346C8.47135 10.8645 8.48759 11.3148 8.62248 11.736L7.57791 12.7806C7.28478 12.2329 7.13184 11.6212 7.13275 11Z" fill="#777777"/>
<path d="M20.2425 10.4457C19.4863 8.85298 18.5862 7.55425 17.5422 6.5495L14.4454 9.64647C14.7065 10.3288 14.7643 11.0722 14.612 11.7868C14.4597 12.5013 14.1037 13.1565 13.5871 13.6731C13.0705 14.1897 12.4154 14.5457 11.7008 14.698C10.9863 14.8503 10.2429 14.7924 9.56052 14.5314L6.93384 17.1581C8.15243 17.7219 9.50781 18.0039 11 18.0039C15.1293 18.0039 18.2101 15.8533 20.2425 11.5521C20.3243 11.3792 20.3666 11.1902 20.3666 10.9989C20.3666 10.8076 20.3243 10.6187 20.2425 10.4457Z" fill="#777777"/>
</svg>
