<svg width="18" height="19" viewBox="0 0 18 19" fill="none" xmlns="http://www.w3.org/2000/svg">
<path d="M16.8402 8.98793C16.9752 9.1242 17.0509 9.30824 17.0509 9.50004C17.0509 9.69184 16.9752 9.87588 16.8402 10.0121L9.46408 17.3704C8.52048 18.3139 7.2407 18.844 5.90626 18.844C4.57182 18.844 3.29204 18.3139 2.34845 17.3704C1.40486 16.4268 0.874756 15.147 0.874756 13.8125C0.874756 12.4781 1.40486 11.1983 2.34845 10.2547L11.2699 1.21644C11.6 0.868402 11.9964 0.589963 12.4358 0.397539C12.8752 0.205115 13.3487 0.102601 13.8283 0.0960394C14.308 0.0894781 14.784 0.179002 15.2285 0.359335C15.673 0.539668 16.0769 0.80716 16.4164 1.14604C16.7559 1.48493 17.0241 1.88834 17.2052 2.33251C17.3863 2.77668 17.4767 3.25261 17.471 3.73226C17.4653 4.2119 17.3636 4.68555 17.1719 5.12527C16.9803 5.565 16.7025 5.96192 16.3551 6.29262L7.43361 15.3309C7.23419 15.5334 6.99641 15.6941 6.73416 15.8036C6.47191 15.9131 6.19046 15.9693 5.90626 15.9688C5.47903 15.9698 5.06111 15.8439 4.70554 15.6071C4.34997 15.3702 4.07278 15.0331 3.90914 14.6384C3.74551 14.2438 3.7028 13.8094 3.78643 13.3904C3.87007 12.9715 4.07629 12.5868 4.37892 12.2852L11.8629 4.68441C11.9277 4.61177 12.0065 4.55304 12.0946 4.51178C12.1828 4.47051 12.2784 4.44758 12.3756 4.44436C12.4729 4.44114 12.5698 4.45771 12.6605 4.49306C12.7511 4.52841 12.8337 4.5818 12.9031 4.65001C12.9725 4.71821 13.0274 4.7998 13.0643 4.88983C13.1013 4.97986 13.1196 5.07646 13.1181 5.17376C13.1166 5.27107 13.0953 5.36706 13.0556 5.45591C13.0159 5.54476 12.9586 5.62463 12.8871 5.69066L5.40314 13.3004C5.33501 13.3672 5.28086 13.4469 5.24384 13.5348C5.20682 13.6227 5.18767 13.7171 5.18751 13.8125C5.18643 14.0038 5.26067 14.1877 5.39415 14.3246C5.53212 14.4565 5.7154 14.5305 5.90626 14.5313C6.09749 14.5324 6.28145 14.4581 6.41837 14.3246L15.3309 5.27738C15.5334 5.07797 15.6941 4.84018 15.8036 4.57794C15.9131 4.31569 15.9693 4.03424 15.9688 3.75004C15.9698 3.3228 15.8439 2.90489 15.6071 2.54932C15.3702 2.19375 15.0331 1.91656 14.6384 1.75292C14.2437 1.58928 13.8094 1.54657 13.3904 1.63021C12.9714 1.71385 12.5867 1.92007 12.2852 2.2227L3.37267 11.27C3.02463 11.6 2.74619 11.9965 2.55376 12.4359C2.36134 12.8752 2.25882 13.3487 2.25226 13.8283C2.2457 14.308 2.33523 14.7841 2.51556 15.2286C2.69589 15.673 2.96338 16.0769 3.30227 16.4164C3.64115 16.7559 4.04456 17.0241 4.48873 17.2052C4.9329 17.3863 5.40884 17.4767 5.88848 17.471C6.36812 17.4653 6.84177 17.3636 7.2815 17.172C7.72123 16.9803 8.11814 16.7026 8.44884 16.3551L15.816 8.98793C15.9523 8.85296 16.1363 8.77725 16.3281 8.77725C16.5199 8.77725 16.704 8.85296 16.8402 8.98793Z" fill="#454545"/>
</svg>
