<svg width="24" height="24" viewBox="0 0 24 24" fill="none" xmlns="http://www.w3.org/2000/svg">
<path d="M20.2798 15.6667C19.4483 15.6675 18.6492 15.9876 18.0486 16.5604L14.7938 14.0396C15.0761 13.5604 15.2232 13.014 15.2194 12.4583C15.2179 12.266 15.1987 12.0742 15.1619 11.8854L17.4045 11.1521C17.7599 11.8541 18.3616 12.4016 19.0955 12.6907C19.8293 12.9799 20.6441 12.9905 21.3853 12.7206C22.1265 12.4507 22.7424 11.919 23.1161 11.2265C23.4897 10.534 23.5952 9.72896 23.4124 8.96413C23.2296 8.19929 22.7713 7.52795 22.1245 7.07755C21.4777 6.62715 20.6874 6.42905 19.9037 6.52086C19.12 6.61267 18.3974 6.988 17.873 7.57559C17.3487 8.16318 17.0592 8.92212 17.0595 9.70833C17.061 9.90066 17.0802 10.0924 17.117 10.2812L14.8743 11.0146C14.605 10.4849 14.1939 10.0398 13.6865 9.72837C13.179 9.41696 12.5951 9.2514 11.9991 9.25C11.7033 9.25093 11.409 9.29336 11.125 9.37604L10.0325 6.92396C10.6893 6.51224 11.1749 5.87804 11.3998 5.13803C11.6246 4.39803 11.5737 3.60201 11.2564 2.89643C10.9391 2.19084 10.3767 1.62317 9.67265 1.29784C8.96865 0.972509 8.1704 0.911416 7.42478 1.1258C6.67916 1.34018 6.03633 1.81562 5.61455 2.46463C5.19278 3.11365 5.02043 3.89259 5.12923 4.65813C5.23803 5.42367 5.62065 6.12431 6.20669 6.63116C6.79274 7.138 7.54278 7.41695 8.31883 7.41667C8.61468 7.41574 8.90893 7.37331 9.1929 7.29063L10.2855 9.74271C9.92253 9.96982 9.60873 10.2668 9.36248 10.6163C9.11624 10.9658 8.9425 11.3608 8.85145 11.7781C8.7604 12.1954 8.75388 12.6265 8.83226 13.0464C8.91064 13.4662 9.07235 13.8662 9.30791 14.2229L5.78864 17.3396C5.21146 16.8491 4.47706 16.5809 3.71848 16.5833C3.00157 16.5837 2.30528 16.8224 1.73995 17.2617C1.17462 17.7009 0.772567 18.3155 0.597496 19.0082C0.422425 19.7008 0.484347 20.4319 0.773451 21.0855C1.06256 21.7391 1.56231 22.2779 2.19353 22.6165C2.82475 22.9551 3.55134 23.0742 4.25818 22.9549C4.96502 22.8356 5.61169 22.4847 6.09572 21.9578C6.57976 21.4309 6.87348 20.7582 6.93035 20.0462C6.98722 19.3342 6.80399 18.6236 6.40969 18.0271L9.92896 14.9104C10.5061 15.4009 11.2405 15.6691 11.9991 15.6667C12.8305 15.6658 13.6296 15.3457 14.2303 14.7729L17.485 17.2937C17.2027 17.773 17.0557 18.3193 17.0595 18.875C17.0595 19.5095 17.2484 20.1298 17.6022 20.6575C17.9561 21.1851 18.459 21.5963 19.0474 21.8391C19.6358 22.0819 20.2833 22.1455 20.908 22.0217C21.5327 21.8979 22.1064 21.5923 22.5568 21.1436C23.0072 20.6949 23.3139 20.1233 23.4381 19.5009C23.5624 18.8786 23.4986 18.2335 23.2549 17.6472C23.0111 17.061 22.5984 16.5599 22.0688 16.2074C21.5393 15.8548 20.9167 15.6667 20.2798 15.6667ZM20.2798 7.41667C20.7347 7.41667 21.1794 7.55107 21.5577 7.80288C21.9359 8.05469 22.2307 8.4126 22.4048 8.83135C22.5789 9.2501 22.6245 9.71088 22.5357 10.1554C22.447 10.6 22.2279 11.0083 21.9062 11.3288C21.5845 11.6493 21.1747 11.8675 20.7285 11.956C20.2823 12.0444 19.8198 11.999 19.3995 11.8256C18.9792 11.6521 18.62 11.3584 18.3672 10.9815C18.1145 10.6047 17.9796 10.1616 17.9796 9.70833C17.9826 9.10147 18.2259 8.52033 18.6566 8.09121C19.0873 7.66209 19.6706 7.41968 20.2798 7.41667ZM6.01866 4.20833C6.01866 3.75509 6.15356 3.31202 6.4063 2.93515C6.65905 2.55829 7.01829 2.26456 7.43859 2.09111C7.8589 1.91766 8.32138 1.87228 8.76758 1.9607C9.21377 2.04913 9.62362 2.26739 9.9453 2.58788C10.267 2.90838 10.4861 3.31671 10.5748 3.76125C10.6636 4.20579 10.618 4.66657 10.4439 5.08532C10.2698 5.50407 9.975 5.86197 9.59674 6.11379C9.21848 6.3656 8.77376 6.5 8.31883 6.5C7.70972 6.49699 7.12642 6.25458 6.6957 5.82546C6.26499 5.39634 6.02168 4.81519 6.01866 4.20833ZM3.71848 22.0833C3.26355 22.0833 2.81883 21.9489 2.44057 21.6971C2.06231 21.4453 1.76749 21.0874 1.59339 20.6686C1.4193 20.2499 1.37375 19.7891 1.4625 19.3446C1.55125 18.9 1.77032 18.4917 2.09201 18.1712C2.41369 17.8507 2.82355 17.6325 3.26974 17.544C3.71593 17.4556 4.17842 17.501 4.59872 17.6744C5.01902 17.8479 5.37826 18.1416 5.63101 18.5185C5.88375 18.8953 6.01866 19.3384 6.01866 19.7917C6.01563 20.3985 5.77232 20.9797 5.34161 21.4088C4.91089 21.8379 4.32759 22.0803 3.71848 22.0833ZM11.9991 14.75C11.5442 14.75 11.0995 14.6156 10.7212 14.3638C10.3429 14.112 10.0481 13.7541 9.87403 13.3353C9.69993 12.9166 9.65438 12.4558 9.74313 12.0113C9.83189 11.5667 10.051 11.1584 10.3726 10.8379C10.6943 10.5174 11.1042 10.2991 11.5504 10.2107C11.9966 10.1223 12.4591 10.1677 12.8794 10.3411C13.2997 10.5146 13.6589 10.8083 13.9116 11.1852C14.1644 11.562 14.2993 12.0051 14.2993 12.4583C14.2963 13.0652 14.053 13.6463 13.6222 14.0755C13.1915 14.5046 12.6082 14.747 11.9991 14.75ZM20.2798 21.1667C19.8248 21.1667 19.3801 21.0323 19.0018 20.7804C18.6236 20.5286 18.3288 20.1707 18.1547 19.752C17.9806 19.3332 17.935 18.8725 18.0238 18.4279C18.1125 17.9834 18.3316 17.575 18.6533 17.2545C18.975 16.934 19.3848 16.7158 19.831 16.6274C20.2772 16.5389 20.7397 16.5843 21.16 16.7578C21.5803 16.9312 21.9395 17.225 22.1923 17.6018C22.445 17.9787 22.5799 18.4217 22.5799 18.875C22.5769 19.4819 22.3336 20.063 21.9029 20.4921C21.4722 20.9212 20.8889 21.1637 20.2798 21.1667Z" fill="#C0C0C0"/>
<path d="M20.2798 7.41667C20.7347 7.41667 21.1794 7.55107 21.5577 7.80288C21.9359 8.05469 22.2307 8.4126 22.4048 8.83135C22.5789 9.2501 22.6245 9.71088 22.5357 10.1554C22.447 10.6 22.2279 11.0083 21.9062 11.3288C21.5845 11.6493 21.1747 11.8675 20.7285 11.956C20.2823 12.0444 19.8198 11.999 19.3995 11.8256C18.9792 11.6521 18.62 11.3584 18.3672 10.9815C18.1145 10.6047 17.9796 10.1616 17.9796 9.70833C17.9826 9.10147 18.2259 8.52033 18.6566 8.09121C19.0873 7.66209 19.6706 7.41968 20.2798 7.41667Z" fill="#C0C0C0"/>
<path d="M3.71848 22.0833C3.26355 22.0833 2.81883 21.9489 2.44057 21.6971C2.06231 21.4453 1.76749 21.0874 1.59339 20.6686C1.4193 20.2499 1.37375 19.7891 1.4625 19.3446C1.55125 18.9 1.77032 18.4917 2.09201 18.1712C2.41369 17.8507 2.82355 17.6325 3.26974 17.544C3.71593 17.4556 4.17842 17.501 4.59872 17.6744C5.01902 17.8479 5.37826 18.1416 5.63101 18.5185C5.88375 18.8953 6.01866 19.3384 6.01866 19.7917C6.01563 20.3985 5.77232 20.9797 5.34161 21.4088C4.91089 21.8379 4.32759 22.0803 3.71848 22.0833Z" fill="#C0C0C0"/>
</svg>
