<svg width="21" height="22" viewBox="0 0 21 22" fill="none" xmlns="http://www.w3.org/2000/svg">
<g clip-path="url(#clip0_753_499)">
<path d="M20.0454 20.5454L15.538 16.0299L20.0454 20.5454ZM18.0359 9.9952C18.0359 12.2603 17.1361 14.4327 15.5344 16.0344C13.9327 17.6361 11.7603 18.5359 9.4952 18.5359C7.23007 18.5359 5.05772 17.6361 3.45603 16.0344C1.85435 14.4327 0.954529 12.2603 0.954529 9.9952C0.954529 7.73007 1.85435 5.55772 3.45603 3.95603C5.05772 2.35435 7.23007 1.45453 9.4952 1.45453C11.7603 1.45453 13.9327 2.35435 15.5344 3.95603C17.1361 5.55772 18.0359 7.73007 18.0359 9.9952V9.9952Z" stroke="#A2A2A2" stroke-width="2" stroke-linecap="round"/>
</g>
<defs>
<clipPath id="clip0_753_499">
<rect width="21" height="21" fill="white" transform="translate(0 0.5)"/>
</clipPath>
</defs>
</svg>
