<svg width="10" height="10" viewBox="0 0 10 10" fill="none" xmlns="http://www.w3.org/2000/svg">
<path d="M5.62687 4.99997L9.31132 1.31553C9.38413 1.23051 9.42217 1.12114 9.41785 1.00928C9.41353 0.897427 9.36716 0.791321 9.28801 0.712168C9.20886 0.633015 9.10275 0.586645 8.9909 0.582324C8.87904 0.578004 8.76967 0.616051 8.68465 0.688863L5.00021 4.37331L1.31576 0.684418C1.23207 0.600728 1.11856 0.553711 1.00021 0.553711C0.881849 0.553711 0.76834 0.600728 0.68465 0.684418C0.600959 0.768109 0.553942 0.881618 0.553942 0.999974C0.553942 1.11833 0.600959 1.23184 0.68465 1.31553L4.37354 4.99997L0.68465 8.68442C0.638124 8.72426 0.600337 8.77329 0.57366 8.82843C0.546983 8.88357 0.531992 8.94363 0.529628 9.00484C0.527264 9.06605 0.537577 9.12708 0.559922 9.18412C0.582266 9.24115 0.616158 9.29295 0.659472 9.33626C0.702785 9.37958 0.754584 9.41347 0.811617 9.43581C0.86865 9.45816 0.929687 9.46847 0.990896 9.46611C1.0521 9.46374 1.11216 9.44875 1.1673 9.42207C1.22244 9.3954 1.27147 9.35761 1.31132 9.31109L5.00021 5.62664L8.68465 9.31109C8.76967 9.3839 8.87904 9.42194 8.9909 9.41762C9.10275 9.4133 9.20886 9.36693 9.28801 9.28778C9.36716 9.20863 9.41353 9.10252 9.41785 8.99066C9.42217 8.87881 9.38413 8.76944 9.31132 8.68442L5.62687 4.99997Z" fill="#BBBBBB"/>
</svg>
