<svg width="24" height="24" viewBox="0 0 24 24" fill="none" xmlns="http://www.w3.org/2000/svg">
<rect width="24" height="24" rx="12" fill="#D7C9B3"/>
<mask id="path-2-outside-1_2184_196" maskUnits="userSpaceOnUse" x="3.70557" y="3.28003" width="17" height="16" fill="black">
<rect fill="white" x="3.70557" y="3.28003" width="17" height="16"/>
<path d="M17.5194 13.6458C16.9808 13.6463 16.4631 13.8507 16.074 14.2165L13.9655 12.6067C14.1484 12.3007 14.2436 11.9518 14.2412 11.597C14.2402 11.4742 14.2278 11.3517 14.2039 11.2312L15.6568 10.7629C15.887 11.2111 16.2768 11.5608 16.7522 11.7454C17.2276 11.93 17.7555 11.9368 18.2356 11.7645C18.7158 11.5921 19.1148 11.2526 19.3569 10.8104C19.5989 10.3682 19.6673 9.8541 19.5489 9.3657C19.4304 8.8773 19.1335 8.4486 18.7145 8.16098C18.2955 7.87337 17.7835 7.74687 17.2758 7.8055C16.7681 7.86413 16.3 8.1038 15.9603 8.47902C15.6206 8.85424 15.4331 9.33888 15.4333 9.84093C15.4342 9.96375 15.4467 10.0862 15.4705 10.2068L14.0176 10.6751C13.8432 10.3368 13.5768 10.0526 13.2481 9.85373C12.9194 9.65487 12.5411 9.54915 12.155 9.54825C11.9633 9.54884 11.7727 9.57594 11.5888 9.62874L10.881 8.06291C11.3065 7.79999 11.621 7.39501 11.7667 6.92246C11.9124 6.44992 11.8794 5.9416 11.6739 5.49103C11.4683 5.04047 11.1039 4.67797 10.6479 4.47022C10.1918 4.26247 9.67466 4.22346 9.19163 4.36036C8.70859 4.49726 8.29215 4.80086 8.01891 5.2153C7.74567 5.62975 7.63403 6.12715 7.70451 6.61601C7.77499 7.10486 8.02286 7.55228 8.40252 7.87593C8.78217 8.19959 9.26807 8.37771 9.77082 8.37754C9.96248 8.37694 10.1531 8.34985 10.3371 8.29705L11.0449 9.86288C10.8097 10.0079 10.6064 10.1976 10.4469 10.4208C10.2874 10.6439 10.1748 10.8962 10.1159 11.1626C10.0569 11.4291 10.0527 11.7044 10.1034 11.9725C10.1542 12.2406 10.259 12.496 10.4116 12.7238L8.13169 14.714C7.75777 14.4009 7.28202 14.2295 6.79058 14.2311C6.32615 14.2314 5.87508 14.3838 5.50884 14.6643C5.1426 14.9448 4.88214 15.3373 4.76873 15.7796C4.65531 16.2219 4.69543 16.6887 4.88272 17.1061C5.07001 17.5234 5.39376 17.8675 5.80268 18.0837C6.2116 18.3 6.68231 18.376 7.14022 18.2998C7.59813 18.2236 8.01706 17.9996 8.33063 17.6631C8.6442 17.3267 8.83448 16.8971 8.87132 16.4424C8.90816 15.9877 8.78946 15.534 8.53402 15.1531L10.8139 13.1628C11.1878 13.476 11.6636 13.6473 12.155 13.6458C12.6936 13.6452 13.2113 13.4408 13.6004 13.075L15.7089 14.6848C15.526 14.9908 15.4308 15.3397 15.4333 15.6945C15.4333 16.0997 15.5556 16.4958 15.7848 16.8327C16.0141 17.1697 16.3399 17.4322 16.7211 17.5873C17.1023 17.7424 17.5217 17.7829 17.9264 17.7039C18.3311 17.6248 18.7028 17.4297 18.9946 17.1432C19.2863 16.8567 19.485 16.4916 19.5655 16.0942C19.646 15.6968 19.6047 15.2848 19.4468 14.9105C19.2889 14.5361 19.0215 14.2162 18.6784 13.991C18.3354 13.7659 17.932 13.6458 17.5194 13.6458ZM17.5194 8.37754C17.8141 8.37754 18.1022 8.46336 18.3473 8.62416C18.5923 8.78496 18.7833 9.01351 18.8961 9.28091C19.0089 9.54831 19.0384 9.84255 18.9809 10.1264C18.9234 10.4103 18.7815 10.671 18.5731 10.8757C18.3647 11.0804 18.0992 11.2197 17.8101 11.2762C17.5211 11.3327 17.2215 11.3037 16.9492 11.1929C16.6769 11.0822 16.4442 10.8946 16.2804 10.6539C16.1167 10.4133 16.0293 10.1304 16.0293 9.84093C16.0313 9.45341 16.1889 9.0823 16.4679 8.80828C16.7469 8.53426 17.1248 8.37946 17.5194 8.37754ZM8.2807 6.32878C8.2807 6.03935 8.36809 5.75642 8.53183 5.51576C8.69557 5.27511 8.92829 5.08754 9.20057 4.97678C9.47286 4.86602 9.77247 4.83704 10.0615 4.89351C10.3506 4.94997 10.6161 5.08935 10.8245 5.29401C11.0329 5.49867 11.1748 5.75942 11.2323 6.04329C11.2898 6.32716 11.2603 6.6214 11.1475 6.8888C11.0347 7.1562 10.8437 7.38475 10.5987 7.54555C10.3536 7.70635 10.0655 7.79218 9.77082 7.79218C9.37622 7.79025 8.99834 7.63546 8.71931 7.36143C8.44028 7.08741 8.28266 6.71631 8.2807 6.32878ZM6.79058 17.7433C6.49587 17.7433 6.20777 17.6574 5.96272 17.4966C5.71767 17.3358 5.52668 17.1073 5.4139 16.8399C5.30111 16.5725 5.2716 16.2782 5.3291 15.9944C5.3866 15.7105 5.52852 15.4498 5.73691 15.2451C5.94531 15.0404 6.21082 14.9011 6.49988 14.8446C6.78893 14.7881 7.08854 14.8171 7.36083 14.9279C7.63311 15.0386 7.86583 15.2262 8.02957 15.4668C8.19331 15.7075 8.2807 15.9904 8.2807 16.2799C8.27874 16.6674 8.12112 17.0385 7.84209 17.3125C7.56306 17.5865 7.18518 17.7413 6.79058 17.7433ZM12.155 13.0604C11.8603 13.0604 11.5722 12.9746 11.3271 12.8138C11.0821 12.653 10.8911 12.4244 10.7783 12.157C10.6655 11.8896 10.636 11.5954 10.6935 11.3115C10.751 11.0276 10.8929 10.7669 11.1013 10.5622C11.3097 10.3576 11.5752 10.2182 11.8643 10.1617C12.1534 10.1053 12.453 10.1342 12.7252 10.245C12.9975 10.3558 13.2303 10.5433 13.394 10.784C13.5577 11.0246 13.6451 11.3076 13.6451 11.597C13.6432 11.9845 13.4855 12.3556 13.2065 12.6297C12.9275 12.9037 12.5496 13.0585 12.155 13.0604ZM17.5194 17.1579C17.2247 17.1579 16.9366 17.0721 16.6916 16.9113C16.4465 16.7505 16.2555 16.5219 16.1427 16.2545C16.03 15.9871 16.0004 15.6929 16.0579 15.409C16.1154 15.1251 16.2574 14.8644 16.4658 14.6597C16.6741 14.4551 16.9397 14.3157 17.2287 14.2592C17.5178 14.2028 17.8174 14.2317 18.0897 14.3425C18.362 14.4533 18.5947 14.6408 18.7584 14.8815C18.9221 15.1221 19.0095 15.4051 19.0095 15.6945C19.0076 16.082 18.85 16.4531 18.5709 16.7272C18.2919 17.0012 17.914 17.156 17.5194 17.1579Z"/>
</mask>
<path d="M17.5194 13.6458C16.9808 13.6463 16.4631 13.8507 16.074 14.2165L13.9655 12.6067C14.1484 12.3007 14.2436 11.9518 14.2412 11.597C14.2402 11.4742 14.2278 11.3517 14.2039 11.2312L15.6568 10.7629C15.887 11.2111 16.2768 11.5608 16.7522 11.7454C17.2276 11.93 17.7555 11.9368 18.2356 11.7645C18.7158 11.5921 19.1148 11.2526 19.3569 10.8104C19.5989 10.3682 19.6673 9.8541 19.5489 9.3657C19.4304 8.8773 19.1335 8.4486 18.7145 8.16098C18.2955 7.87337 17.7835 7.74687 17.2758 7.8055C16.7681 7.86413 16.3 8.1038 15.9603 8.47902C15.6206 8.85424 15.4331 9.33888 15.4333 9.84093C15.4342 9.96375 15.4467 10.0862 15.4705 10.2068L14.0176 10.6751C13.8432 10.3368 13.5768 10.0526 13.2481 9.85373C12.9194 9.65487 12.5411 9.54915 12.155 9.54825C11.9633 9.54884 11.7727 9.57594 11.5888 9.62874L10.881 8.06291C11.3065 7.79999 11.621 7.39501 11.7667 6.92246C11.9124 6.44992 11.8794 5.9416 11.6739 5.49103C11.4683 5.04047 11.1039 4.67797 10.6479 4.47022C10.1918 4.26247 9.67466 4.22346 9.19163 4.36036C8.70859 4.49726 8.29215 4.80086 8.01891 5.2153C7.74567 5.62975 7.63403 6.12715 7.70451 6.61601C7.77499 7.10486 8.02286 7.55228 8.40252 7.87593C8.78217 8.19959 9.26807 8.37771 9.77082 8.37754C9.96248 8.37694 10.1531 8.34985 10.3371 8.29705L11.0449 9.86288C10.8097 10.0079 10.6064 10.1976 10.4469 10.4208C10.2874 10.6439 10.1748 10.8962 10.1159 11.1626C10.0569 11.4291 10.0527 11.7044 10.1034 11.9725C10.1542 12.2406 10.259 12.496 10.4116 12.7238L8.13169 14.714C7.75777 14.4009 7.28202 14.2295 6.79058 14.2311C6.32615 14.2314 5.87508 14.3838 5.50884 14.6643C5.1426 14.9448 4.88214 15.3373 4.76873 15.7796C4.65531 16.2219 4.69543 16.6887 4.88272 17.1061C5.07001 17.5234 5.39376 17.8675 5.80268 18.0837C6.2116 18.3 6.68231 18.376 7.14022 18.2998C7.59813 18.2236 8.01706 17.9996 8.33063 17.6631C8.6442 17.3267 8.83448 16.8971 8.87132 16.4424C8.90816 15.9877 8.78946 15.534 8.53402 15.1531L10.8139 13.1628C11.1878 13.476 11.6636 13.6473 12.155 13.6458C12.6936 13.6452 13.2113 13.4408 13.6004 13.075L15.7089 14.6848C15.526 14.9908 15.4308 15.3397 15.4333 15.6945C15.4333 16.0997 15.5556 16.4958 15.7848 16.8327C16.0141 17.1697 16.3399 17.4322 16.7211 17.5873C17.1023 17.7424 17.5217 17.7829 17.9264 17.7039C18.3311 17.6248 18.7028 17.4297 18.9946 17.1432C19.2863 16.8567 19.485 16.4916 19.5655 16.0942C19.646 15.6968 19.6047 15.2848 19.4468 14.9105C19.2889 14.5361 19.0215 14.2162 18.6784 13.991C18.3354 13.7659 17.932 13.6458 17.5194 13.6458ZM17.5194 8.37754C17.8141 8.37754 18.1022 8.46336 18.3473 8.62416C18.5923 8.78496 18.7833 9.01351 18.8961 9.28091C19.0089 9.54831 19.0384 9.84255 18.9809 10.1264C18.9234 10.4103 18.7815 10.671 18.5731 10.8757C18.3647 11.0804 18.0992 11.2197 17.8101 11.2762C17.5211 11.3327 17.2215 11.3037 16.9492 11.1929C16.6769 11.0822 16.4442 10.8946 16.2804 10.6539C16.1167 10.4133 16.0293 10.1304 16.0293 9.84093C16.0313 9.45341 16.1889 9.0823 16.4679 8.80828C16.7469 8.53426 17.1248 8.37946 17.5194 8.37754ZM8.2807 6.32878C8.2807 6.03935 8.36809 5.75642 8.53183 5.51576C8.69557 5.27511 8.92829 5.08754 9.20057 4.97678C9.47286 4.86602 9.77247 4.83704 10.0615 4.89351C10.3506 4.94997 10.6161 5.08935 10.8245 5.29401C11.0329 5.49867 11.1748 5.75942 11.2323 6.04329C11.2898 6.32716 11.2603 6.6214 11.1475 6.8888C11.0347 7.1562 10.8437 7.38475 10.5987 7.54555C10.3536 7.70635 10.0655 7.79218 9.77082 7.79218C9.37622 7.79025 8.99834 7.63546 8.71931 7.36143C8.44028 7.08741 8.28266 6.71631 8.2807 6.32878ZM6.79058 17.7433C6.49587 17.7433 6.20777 17.6574 5.96272 17.4966C5.71767 17.3358 5.52668 17.1073 5.4139 16.8399C5.30111 16.5725 5.2716 16.2782 5.3291 15.9944C5.3866 15.7105 5.52852 15.4498 5.73691 15.2451C5.94531 15.0404 6.21082 14.9011 6.49988 14.8446C6.78893 14.7881 7.08854 14.8171 7.36083 14.9279C7.63311 15.0386 7.86583 15.2262 8.02957 15.4668C8.19331 15.7075 8.2807 15.9904 8.2807 16.2799C8.27874 16.6674 8.12112 17.0385 7.84209 17.3125C7.56306 17.5865 7.18518 17.7413 6.79058 17.7433ZM12.155 13.0604C11.8603 13.0604 11.5722 12.9746 11.3271 12.8138C11.0821 12.653 10.8911 12.4244 10.7783 12.157C10.6655 11.8896 10.636 11.5954 10.6935 11.3115C10.751 11.0276 10.8929 10.7669 11.1013 10.5622C11.3097 10.3576 11.5752 10.2182 11.8643 10.1617C12.1534 10.1053 12.453 10.1342 12.7252 10.245C12.9975 10.3558 13.2303 10.5433 13.394 10.784C13.5577 11.0246 13.6451 11.3076 13.6451 11.597C13.6432 11.9845 13.4855 12.3556 13.2065 12.6297C12.9275 12.9037 12.5496 13.0585 12.155 13.0604ZM17.5194 17.1579C17.2247 17.1579 16.9366 17.0721 16.6916 16.9113C16.4465 16.7505 16.2555 16.5219 16.1427 16.2545C16.03 15.9871 16.0004 15.6929 16.0579 15.409C16.1154 15.1251 16.2574 14.8644 16.4658 14.6597C16.6741 14.4551 16.9397 14.3157 17.2287 14.2592C17.5178 14.2028 17.8174 14.2317 18.0897 14.3425C18.362 14.4533 18.5947 14.6408 18.7584 14.8815C18.9221 15.1221 19.0095 15.4051 19.0095 15.6945C19.0076 16.082 18.85 16.4531 18.5709 16.7272C18.2919 17.0012 17.914 17.156 17.5194 17.1579Z" fill="white"/>
<path d="M17.5194 13.6458L17.5194 13.4329L17.5192 13.4329L17.5194 13.6458ZM16.074 14.2165L15.9448 14.3857L16.0883 14.4952L16.2198 14.3716L16.074 14.2165ZM13.9655 12.6067L13.7828 12.4976L13.6853 12.6606L13.8363 12.7759L13.9655 12.6067ZM14.2412 11.597L14.454 11.5955L14.454 11.5954L14.2412 11.597ZM14.2039 11.2312L14.1386 11.0286L13.9584 11.0867L13.9951 11.2725L14.2039 11.2312ZM15.6568 10.7629L15.8461 10.6656L15.7635 10.5048L15.5915 10.5603L15.6568 10.7629ZM15.4333 9.84093L15.2204 9.841L15.2204 9.84256L15.4333 9.84093ZM15.4705 10.2068L15.5358 10.4094L15.7161 10.3513L15.6793 10.1655L15.4705 10.2068ZM14.0176 10.6751L13.8285 10.7727L13.9112 10.933L14.0829 10.8777L14.0176 10.6751ZM12.155 9.54825L12.1555 9.33539L12.1543 9.3354L12.155 9.54825ZM11.5888 9.62874L11.3948 9.71641L11.4706 9.8841L11.6475 9.83334L11.5888 9.62874ZM10.881 8.06291L10.7691 7.88182L10.6099 7.98014L10.687 8.15058L10.881 8.06291ZM9.77082 8.37754L9.77089 8.59039L9.77147 8.59039L9.77082 8.37754ZM10.3371 8.29705L10.531 8.20937L10.4552 8.04169L10.2783 8.09245L10.3371 8.29705ZM11.0449 9.86288L11.1566 10.044L11.3159 9.94578L11.2388 9.77521L11.0449 9.86288ZM10.4116 12.7238L10.5515 12.8842L10.6927 12.761L10.5884 12.6054L10.4116 12.7238ZM8.13169 14.714L7.99501 14.8772L8.13455 14.9941L8.27167 14.8744L8.13169 14.714ZM6.79058 14.2311L6.7907 14.444L6.79127 14.444L6.79058 14.2311ZM8.53402 15.1531L8.39404 14.9927L8.25285 15.1159L8.35723 15.2716L8.53402 15.1531ZM10.8139 13.1628L10.9506 12.9997L10.811 12.8828L10.6739 13.0025L10.8139 13.1628ZM12.155 13.6458L12.1548 13.4329L12.1543 13.4329L12.155 13.6458ZM13.6004 13.075L13.7296 12.9058L13.5861 12.7963L13.4546 12.9199L13.6004 13.075ZM15.7089 14.6848L15.8916 14.794L15.9891 14.6309L15.8381 14.5156L15.7089 14.6848ZM15.4333 15.6945H15.6461L15.6461 15.693L15.4333 15.6945ZM17.5194 8.37754V8.16468L17.5184 8.16468L17.5194 8.37754ZM16.0293 9.84093L15.8164 9.83985V9.84093H16.0293ZM8.2807 6.32878L8.06784 6.32878L8.06785 6.32986L8.2807 6.32878ZM9.77082 7.79218L9.76978 8.00504H9.77082V7.79218ZM6.79058 17.7433L6.79058 17.9561L6.79162 17.9561L6.79058 17.7433ZM8.2807 16.2799L8.49356 16.2809V16.2799H8.2807ZM12.155 13.0604V13.2733L12.156 13.2733L12.155 13.0604ZM13.6451 11.597L13.858 11.5981V11.597H13.6451ZM17.5194 17.1579V17.3708L17.5205 17.3708L17.5194 17.1579ZM19.0095 15.6945L19.2224 15.6956V15.6945H19.0095ZM17.5192 13.4329C16.927 13.4335 16.3571 13.6582 15.9282 14.0614L16.2198 14.3716C16.5691 14.0432 17.0346 13.8591 17.5196 13.8586L17.5192 13.4329ZM16.2032 14.0473L14.0947 12.4376L13.8363 12.7759L15.9448 14.3857L16.2032 14.0473ZM14.1482 12.7159C14.351 12.3766 14.4568 11.9895 14.454 11.5955L14.0283 11.5985C14.0305 11.9142 13.9458 12.2248 13.7828 12.4976L14.1482 12.7159ZM14.454 11.5954C14.453 11.4592 14.4392 11.3235 14.4127 11.1899L13.9951 11.2725C14.0164 11.38 14.0275 11.4891 14.0283 11.5986L14.454 11.5954ZM14.2692 11.4337L15.7221 10.9655L15.5915 10.5603L14.1386 11.0286L14.2692 11.4337ZM15.4674 10.8601C15.7218 11.3553 16.1519 11.7406 16.6751 11.9438L16.8293 11.547C16.4018 11.381 16.0522 11.067 15.8461 10.6656L15.4674 10.8601ZM16.6751 11.9438C17.1984 12.147 17.7792 12.1545 18.3076 11.9648L18.1637 11.5641C17.7318 11.7192 17.2568 11.7131 16.8293 11.547L16.6751 11.9438ZM18.3076 11.9648C18.836 11.7751 19.2762 11.401 19.5436 10.9126L19.1702 10.7082C18.9534 11.1041 18.5955 11.4091 18.1637 11.5641L18.3076 11.9648ZM19.5436 10.9126C19.811 10.4241 19.8867 9.85566 19.7557 9.31555L19.342 9.41585C19.4479 9.85255 19.3869 10.3123 19.1702 10.7082L19.5436 10.9126ZM19.7557 9.31555C19.6248 8.77551 19.2967 8.30243 18.835 7.98549L18.5941 8.33648C18.9704 8.59476 19.2361 8.97909 19.342 9.41585L19.7557 9.31555ZM18.835 7.98549C18.3733 7.66862 17.8099 7.52956 17.2514 7.59405L17.3002 8.01695C17.7572 7.96418 18.2177 8.07813 18.5941 8.33648L18.835 7.98549ZM17.2514 7.59405C16.6929 7.65853 16.1772 7.92224 15.8025 8.33617L16.1181 8.62187C16.4227 8.28536 16.8433 8.06972 17.3002 8.01695L17.2514 7.59405ZM15.8025 8.33617C15.4277 8.75019 15.2202 9.28566 15.2204 9.841L15.6461 9.84086C15.646 9.3921 15.8136 8.95828 16.1181 8.62187L15.8025 8.33617ZM15.2204 9.84256C15.2215 9.9787 15.2353 10.1145 15.2617 10.2481L15.6793 10.1655C15.6581 10.058 15.6469 9.94879 15.6461 9.8393L15.2204 9.84256ZM15.4052 10.0042L13.9523 10.4725L14.0829 10.8777L15.5358 10.4094L15.4052 10.0042ZM14.2068 10.5775C14.0141 10.204 13.7203 9.8906 13.3583 9.6716L13.1379 10.0359C13.4334 10.2146 13.6722 10.4697 13.8285 10.7727L14.2068 10.5775ZM13.3583 9.6716C12.9963 9.45262 12.5801 9.33638 12.1555 9.33539L12.1545 9.76111C12.5021 9.76191 12.8425 9.85711 13.1379 10.0359L13.3583 9.6716ZM12.1543 9.3354C11.9431 9.33605 11.7329 9.36591 11.53 9.42414L11.6475 9.83334C11.8125 9.78596 11.9836 9.76164 12.1557 9.76111L12.1543 9.3354ZM11.7827 9.54106L11.0749 7.97523L10.687 8.15058L11.3948 9.71641L11.7827 9.54106ZM10.9928 8.24399C11.4616 7.95434 11.8091 7.50758 11.9701 6.98517L11.5633 6.85975C11.433 7.28244 11.1513 7.64565 10.7691 7.88182L10.9928 8.24399ZM11.9701 6.98517C12.1312 6.46269 12.0947 5.90062 11.8675 5.40268L11.4802 5.57939C11.6642 5.98258 11.6936 6.43714 11.5633 6.85975L11.9701 6.98517ZM11.8675 5.40268C11.6404 4.90483 11.2382 4.50524 10.7361 4.27651L10.5596 4.66393C10.9696 4.85069 11.2962 5.17611 11.4802 5.57939L11.8675 5.40268ZM10.7361 4.27651C10.234 4.04782 9.66505 4.00494 9.13359 4.15557L9.24967 4.56515C9.68426 4.44198 10.1495 4.47713 10.5596 4.66393L10.7361 4.27651ZM9.13359 4.15557C8.60206 4.30621 8.14288 4.64056 7.8412 5.09814L8.19662 5.33247C8.44142 4.96117 8.81513 4.68831 9.24967 4.56515L9.13359 4.15557ZM7.8412 5.09814C7.53945 5.55583 7.41587 6.10569 7.49383 6.64638L7.91519 6.58563C7.85218 6.14862 7.9519 5.70367 8.19662 5.33247L7.8412 5.09814ZM7.49383 6.64638C7.57178 7.18704 7.84581 7.68105 8.26442 8.03792L8.54061 7.71395C8.19991 7.4235 7.9782 7.02268 7.91519 6.58563L7.49383 6.64638ZM8.26442 8.03792C8.68294 8.3947 9.21794 8.59059 9.77089 8.59039L9.77074 8.16468C9.31821 8.16484 8.8814 8.00447 8.54061 7.71395L8.26442 8.03792ZM9.77147 8.59039C9.98275 8.58974 10.1929 8.55987 10.3958 8.50165L10.2783 8.09245C10.1133 8.13983 9.9422 8.16415 9.77016 8.16468L9.77147 8.59039ZM10.1431 8.38473L10.8509 9.95056L11.2388 9.77521L10.531 8.20937L10.1431 8.38473ZM10.9331 9.68171C10.6741 9.84149 10.4499 10.0506 10.2738 10.297L10.6201 10.5445C10.763 10.3445 10.9454 10.1743 11.1566 10.044L10.9331 9.68171ZM10.2738 10.297C10.0976 10.5434 9.97325 10.822 9.90804 11.1166L10.3237 11.2086C10.3764 10.9703 10.4772 10.7445 10.6201 10.5445L10.2738 10.297ZM9.90804 11.1166C9.84282 11.4112 9.83815 11.7157 9.89429 12.0121L10.3126 11.9329C10.2672 11.6931 10.2709 11.4469 10.3237 11.2086L9.90804 11.1166ZM9.89429 12.0121C9.95043 12.3085 10.0662 12.5908 10.2347 12.8423L10.5884 12.6054C10.4517 12.4013 10.358 12.1726 10.3126 11.9329L9.89429 12.0121ZM10.2716 12.5635L7.99171 14.5537L8.27167 14.8744L10.5515 12.8842L10.2716 12.5635ZM8.26836 14.5509C7.85564 14.2052 7.33113 14.0165 6.7899 14.0183L6.79127 14.444C7.2329 14.4426 7.65991 14.5965 7.99501 14.8772L8.26836 14.5509ZM6.79047 14.0183C6.27963 14.0185 5.78304 14.1862 5.37942 14.4953L5.63826 14.8333C5.96711 14.5814 6.37267 14.4442 6.7907 14.444L6.79047 14.0183ZM5.37942 14.4953C4.97572 14.8045 4.68794 15.2377 4.56254 15.7267L4.97491 15.8324C5.07635 15.4369 5.30948 15.0851 5.63826 14.8333L5.37942 14.4953ZM4.56254 15.7267C4.43713 16.2158 4.48154 16.7319 4.68851 17.1932L5.07692 17.0189C4.90932 16.6454 4.87349 16.2279 4.97491 15.8324L4.56254 15.7267ZM4.68851 17.1932C4.89546 17.6544 5.25282 18.0338 5.70318 18.2719L5.90219 17.8956C5.5347 17.7012 5.24455 17.3925 5.07692 17.0189L4.68851 17.1932ZM5.70318 18.2719C6.15347 18.51 6.67143 18.5936 7.17516 18.5098L7.10528 18.0899C6.69319 18.1584 6.26973 18.0899 5.90219 17.8956L5.70318 18.2719ZM7.17516 18.5098C7.67891 18.426 8.14044 18.1794 8.48634 17.8082L8.17491 17.518C7.89367 17.8198 7.51735 18.0213 7.10528 18.0899L7.17516 18.5098ZM8.48634 17.8082C8.8323 17.437 9.04273 16.9625 9.08348 16.4596L8.65916 16.4252C8.62622 16.8317 8.45609 17.2163 8.17491 17.518L8.48634 17.8082ZM9.08348 16.4596C9.12423 15.9567 8.99288 15.4551 8.71081 15.0345L8.35723 15.2716C8.58604 15.6128 8.69209 16.0188 8.65916 16.4252L9.08348 16.4596ZM8.674 15.3134L10.9539 13.3232L10.6739 13.0025L8.39404 14.9927L8.674 15.3134ZM10.6772 13.326C11.09 13.6717 11.6145 13.8603 12.1557 13.8586L12.1543 13.4329C11.7127 13.4343 11.2857 13.2803 10.9506 12.9997L10.6772 13.326ZM12.1552 13.8586C12.7474 13.858 13.3173 13.6333 13.7462 13.2301L13.4546 12.9199C13.1053 13.2483 12.6398 13.4324 12.1548 13.4329L12.1552 13.8586ZM13.4713 13.2442L15.5798 14.854L15.8381 14.5156L13.7296 12.9058L13.4713 13.2442ZM15.5262 14.5756C15.3234 14.9149 15.2177 15.302 15.2204 15.696L15.6461 15.693C15.6439 15.3773 15.7286 15.0667 15.8916 14.794L15.5262 14.5756ZM15.2204 15.6945C15.2204 16.1427 15.3557 16.5805 15.6089 16.9525L15.9608 16.713C15.7555 16.4112 15.6461 16.0567 15.6461 15.6945H15.2204ZM15.6089 16.9525C15.8619 17.3244 16.2212 17.6138 16.6409 17.7845L16.8013 17.3901C16.4585 17.2507 16.1662 17.0149 15.9608 16.713L15.6089 16.9525ZM16.6409 17.7845C17.0605 17.9552 17.522 17.9998 17.9672 17.9128L17.8856 17.495C17.5215 17.5661 17.1441 17.5296 16.8013 17.3901L16.6409 17.7845ZM17.9672 17.9128C18.4125 17.8258 18.8219 17.6111 19.1437 17.2951L18.8454 16.9913C18.5837 17.2484 18.2497 17.4239 17.8856 17.495L17.9672 17.9128ZM19.1437 17.2951C19.4655 16.979 19.6851 16.5759 19.7741 16.1365L19.3569 16.0519C19.2849 16.4073 19.1071 16.7343 18.8454 16.9913L19.1437 17.2951ZM19.7741 16.1365C19.8631 15.697 19.8174 15.2415 19.6429 14.8278L19.2507 14.9932C19.392 15.3282 19.4289 15.6966 19.3569 16.0519L19.7741 16.1365ZM19.6429 14.8278C19.4684 14.4141 19.1732 14.0611 18.7952 13.8131L18.5617 14.169C18.8698 14.3712 19.1094 14.6582 19.2507 14.9932L19.6429 14.8278ZM18.7952 13.8131C18.4172 13.5651 17.9733 13.4329 17.5194 13.4329V13.8586C17.8908 13.8586 18.2535 13.9668 18.5617 14.169L18.7952 13.8131ZM17.5194 8.59039C17.7729 8.59039 18.0204 8.66423 18.2305 8.80213L18.4641 8.4462C18.1841 8.2625 17.8554 8.16468 17.5194 8.16468V8.59039ZM18.2305 8.80213C18.4406 8.94 18.6038 9.13556 18.7 9.36364L19.0922 9.19819C18.9629 8.89147 18.7441 8.62993 18.4641 8.4462L18.2305 8.80213ZM18.7 9.36364C18.7962 9.59167 18.8213 9.84236 18.7723 10.0842L19.1895 10.1687C19.2555 9.84275 19.2216 9.50496 19.0922 9.19819L18.7 9.36364ZM18.7723 10.0842C18.7233 10.326 18.6023 10.5487 18.424 10.7238L18.7222 11.0276C18.9607 10.7934 19.1235 10.4946 19.1895 10.1687L18.7723 10.0842ZM18.424 10.7238C18.2456 10.899 18.0178 11.0188 17.7693 11.0673L17.8509 11.4851C18.1806 11.4207 18.4838 11.2617 18.7222 11.0276L18.424 10.7238ZM17.7693 11.0673C17.5208 11.1158 17.2633 11.0909 17.0294 10.9958L16.869 11.3901C17.1797 11.5165 17.5213 11.5495 17.8509 11.4851L17.7693 11.0673ZM17.0294 10.9958C16.7956 10.9006 16.5963 10.7398 16.4564 10.5342L16.1045 10.7737C16.292 11.0494 16.5582 11.2637 16.869 11.3901L17.0294 10.9958ZM16.4564 10.5342C16.3166 10.3287 16.2422 10.0874 16.2422 9.84093H15.8164C15.8164 10.1733 15.9168 10.4979 16.1045 10.7737L16.4564 10.5342ZM16.2422 9.84201C16.2438 9.51181 16.3781 9.19482 16.6171 8.96015L16.3188 8.65641C15.9997 8.96979 15.8187 9.395 15.8165 9.83985L16.2422 9.84201ZM16.6171 8.96015C16.8561 8.72535 17.1807 8.59205 17.5205 8.59039L17.5184 8.16468C17.0689 8.16687 16.6377 8.34316 16.3188 8.65641L16.6171 8.96015ZM8.49356 6.32878C8.49356 6.08232 8.56796 5.84106 8.70782 5.6355L8.35584 5.39603C8.16823 5.67178 8.06784 5.99639 8.06784 6.32878H8.49356ZM8.70782 5.6355C8.84771 5.4299 9.04695 5.26907 9.28078 5.17395L9.12037 4.77961C8.80963 4.90602 8.54343 5.12032 8.35584 5.39603L8.70782 5.6355ZM9.28078 5.17395C9.51464 5.07882 9.7722 5.05387 10.0207 5.10242L10.1023 4.6846C9.77274 4.62021 9.43107 4.65323 9.12037 4.77961L9.28078 5.17395ZM10.0207 5.10242C10.2692 5.15096 10.497 5.27069 10.6753 5.44588L10.9736 5.14214C10.7352 4.90801 10.4319 4.74899 10.1023 4.6846L10.0207 5.10242ZM10.6753 5.44588C10.8537 5.62102 10.9747 5.8437 11.0237 6.08554L11.4409 6.00103C11.3749 5.67513 11.2121 5.37631 10.9736 5.14214L10.6753 5.44588ZM11.0237 6.08554C11.0727 6.32736 11.0476 6.57805 10.9514 6.80608L11.3436 6.97152C11.473 6.66475 11.5069 6.32696 11.4409 6.00103L11.0237 6.08554ZM10.9514 6.80608C10.8552 7.03415 10.692 7.22971 10.4819 7.36759L10.7155 7.72352C10.9954 7.53979 11.2143 7.27825 11.3436 6.97152L10.9514 6.80608ZM10.4819 7.36759C10.2718 7.50549 10.0243 7.57932 9.77082 7.57932V8.00504C10.1068 8.00504 10.4355 7.90721 10.7155 7.72352L10.4819 7.36759ZM9.77185 7.57932C9.43212 7.57767 9.10754 7.44436 8.86845 7.20957L8.57016 7.5133C8.88913 7.82655 9.32031 8.00284 9.76978 8.00503L9.77185 7.57932ZM8.86845 7.20957C8.6295 6.97489 8.49522 6.6579 8.49356 6.32771L8.06785 6.32986C8.07009 6.77471 8.25107 7.19993 8.57016 7.5133L8.86845 7.20957ZM6.79058 17.5304C6.53712 17.5304 6.28965 17.4566 6.0795 17.3187L5.84594 17.6746C6.12589 17.8583 6.45462 17.9561 6.79058 17.9561L6.79058 17.5304ZM6.0795 17.3187C5.86939 17.1808 5.70622 16.9852 5.61002 16.7572L5.21777 16.9226C5.34714 17.2293 5.56595 17.4909 5.84594 17.6746L6.0795 17.3187ZM5.61002 16.7572C5.51384 16.5291 5.48874 16.2784 5.53772 16.0366L5.12048 15.9521C5.05446 16.278 5.08838 16.6158 5.21777 16.9226L5.61002 16.7572ZM5.53772 16.0366C5.5867 15.7948 5.70771 15.5721 5.88606 15.397L5.58777 15.0932C5.34932 15.3274 5.18649 15.6262 5.12048 15.9521L5.53772 16.0366ZM5.88606 15.397C6.06445 15.2218 6.29219 15.102 6.54069 15.0535L6.45907 14.6357C6.12946 14.7001 5.82617 14.8591 5.58777 15.0932L5.88606 15.397ZM6.54069 15.0535C6.7892 15.005 7.04676 15.0299 7.28062 15.125L7.44103 14.7307C7.13033 14.6043 6.78866 14.5713 6.45907 14.6357L6.54069 15.0535ZM7.28062 15.125C7.51445 15.2202 7.71369 15.381 7.85358 15.5866L8.20556 15.3471C8.01798 15.0714 7.75177 14.8571 7.44103 14.7307L7.28062 15.125ZM7.85358 15.5866C7.99344 15.7921 8.06784 16.0334 8.06784 16.2799H8.49356C8.49356 15.9475 8.39317 15.6229 8.20556 15.3471L7.85358 15.5866ZM8.06785 16.2788C8.06618 16.609 7.9319 16.926 7.69295 17.1606L7.99124 17.4644C8.31033 17.151 8.49131 16.7258 8.49356 16.2809L8.06785 16.2788ZM7.69295 17.1606C7.45386 17.3954 7.12928 17.5288 6.78955 17.5304L6.79162 17.9561C7.24109 17.9539 7.67227 17.7776 7.99124 17.4644L7.69295 17.1606ZM12.155 12.8475C11.9015 12.8475 11.6541 12.7737 11.4439 12.6358L11.2104 12.9917C11.4903 13.1754 11.819 13.2733 12.155 13.2733V12.8475ZM11.4439 12.6358C11.2338 12.4979 11.0706 12.3024 10.9744 12.0743L10.5822 12.2397C10.7116 12.5465 10.9304 12.808 11.2104 12.9917L11.4439 12.6358ZM10.9744 12.0743C10.8783 11.8463 10.8532 11.5956 10.9021 11.3538L10.4849 11.2693C10.4189 11.5952 10.4528 11.933 10.5822 12.2397L10.9744 12.0743ZM10.9021 11.3538C10.9511 11.1119 11.0721 10.8892 11.2505 10.7141L10.9522 10.4104C10.7137 10.6445 10.5509 10.9434 10.4849 11.2693L10.9021 11.3538ZM11.2505 10.7141C11.4289 10.5389 11.6566 10.4192 11.9051 10.3706L11.8235 9.95282C11.4939 10.0172 11.1906 10.1762 10.9522 10.4104L11.2505 10.7141ZM11.9051 10.3706C12.1536 10.3221 12.4112 10.347 12.645 10.4422L12.8055 10.0478C12.4948 9.92145 12.1531 9.88843 11.8235 9.95282L11.9051 10.3706ZM12.645 10.4422C12.8789 10.5373 13.0781 10.6981 13.218 10.9037L13.57 10.6642C13.3824 10.3885 13.1162 10.1742 12.8055 10.0478L12.645 10.4422ZM13.218 10.9037C13.3579 11.1093 13.4323 11.3505 13.4323 11.597H13.858C13.858 11.2646 13.7576 10.94 13.57 10.6642L13.218 10.9037ZM13.4323 11.5959C13.4306 11.9261 13.2963 12.2431 13.0574 12.4778L13.3557 12.7815C13.6748 12.4681 13.8557 12.0429 13.858 11.5981L13.4323 11.5959ZM13.0574 12.4778C12.8183 12.7126 12.4937 12.8459 12.154 12.8475L12.156 13.2733C12.6055 13.2711 13.0367 13.0948 13.3557 12.7815L13.0574 12.4778ZM17.5194 16.945C17.266 16.945 17.0185 16.8712 16.8083 16.7333L16.5748 17.0892C16.8547 17.2729 17.1835 17.3708 17.5194 17.3708V16.945ZM16.8083 16.7333C16.5982 16.5954 16.4351 16.3999 16.3389 16.1718L15.9466 16.3372C16.076 16.644 16.2948 16.9055 16.5748 17.0892L16.8083 16.7333ZM16.3389 16.1718C16.2427 15.9438 16.2176 15.6931 16.2666 15.4513L15.8493 15.3668C15.7833 15.6927 15.8172 16.0305 15.9466 16.3372L16.3389 16.1718ZM16.2666 15.4513C16.3155 15.2094 16.4366 14.9867 16.6149 14.8116L16.3166 14.5079C16.0782 14.742 15.9153 15.0409 15.8493 15.3668L16.2666 15.4513ZM16.6149 14.8116C16.7933 14.6364 17.021 14.5167 17.2695 14.4681L17.1879 14.0503C16.8583 14.1147 16.555 14.2737 16.3166 14.5079L16.6149 14.8116ZM17.2695 14.4681C17.518 14.4196 17.7756 14.4445 18.0095 14.5397L18.1699 14.1453C17.8592 14.019 17.5175 13.9859 17.1879 14.0503L17.2695 14.4681ZM18.0095 14.5397C18.2433 14.6348 18.4425 14.7956 18.5824 15.0012L18.9344 14.7618C18.7468 14.4861 18.4806 14.2717 18.1699 14.1453L18.0095 14.5397ZM18.5824 15.0012C18.7223 15.2068 18.7967 15.448 18.7967 15.6945H19.2224C19.2224 15.3621 19.122 15.0375 18.9344 14.7618L18.5824 15.0012ZM18.7967 15.6934C18.795 16.0236 18.6607 16.3406 18.4218 16.5753L18.7201 16.879C19.0392 16.5657 19.2201 16.1404 19.2224 15.6956L18.7967 15.6934ZM18.4218 16.5753C18.1827 16.8101 17.8581 16.9434 17.5184 16.9451L17.5205 17.3708C17.9699 17.3686 18.4011 17.1923 18.7201 16.879L18.4218 16.5753Z" fill="white" mask="url(#path-2-outside-1_2184_196)"/>
</svg>
