<svg
    width="10"
    height="8"
    viewBox="0 0 10 8"
    fill="none"
    xmlns="http://www.w3.org/2000/svg"
>
    <path
        d="M9.70174 0.465101C9.6184 0.382056 9.51917 0.316669 9.40999 0.272852C9.3008 0.229034 9.1839 0.207685 9.06628 0.210081C8.94866 0.212477 8.83272 0.238569 8.72541 0.286797C8.6181 0.335025 8.52162 0.404398 8.44174 0.490767L4.3899 5.65327L1.94807 3.21027C1.7822 3.05571 1.56281 2.97156 1.33613 2.97556C1.10944 2.97956 0.893159 3.07139 0.732844 3.23171C0.572529 3.39202 0.480698 3.60831 0.476699 3.83499C0.472699 4.06168 0.556843 4.28106 0.711403 4.44693L3.7984 7.5351C3.88156 7.61811 3.98059 7.68352 4.08958 7.72743C4.19857 7.77134 4.31529 7.79284 4.43277 7.79067C4.55025 7.78849 4.66609 7.76267 4.77338 7.71476C4.88067 7.66684 4.97721 7.5978 5.05724 7.51177L9.71457 1.6901C9.87335 1.52502 9.96106 1.30425 9.95888 1.07522C9.9567 0.846181 9.86363 0.627131 9.70174 0.465101Z"
        fill="white"
    />
</svg>