<svg width="24" height="24" viewBox="0 0 24 24" fill="none" xmlns="http://www.w3.org/2000/svg">
  <path d="M13.5297 11.9819L19.9842 5.54462L19.991 5.5378L19.9973 5.53047C20.1694 5.33003 20.2594 5.07209 20.2492 4.80816C20.239 4.54424 20.1293 4.29401 19.9422 4.10745C19.7552 3.9209 19.5046 3.81172 19.2405 3.80155C18.9764 3.79138 18.7182 3.88095 18.5173 4.05252L18.5099 4.05879L18.5031 4.06561L12.0477 10.5037L5.59228 4.05774L5.59217 4.05763C5.3946 3.86058 5.12676 3.75 4.84763 3.75C4.56851 3.75 4.30067 3.86058 4.10309 4.05763C3.90549 4.2547 3.79436 4.52213 3.79436 4.80112C3.79436 5.08012 3.90549 5.34755 4.10309 5.54462L4.1032 5.54473L10.5654 11.9819L4.10953 18.4127C4.00314 18.5054 3.91652 18.6186 3.85492 18.7455C3.79184 18.8756 3.75638 19.0173 3.75078 19.1617C3.74519 19.3061 3.76959 19.4501 3.82243 19.5846C3.87528 19.7191 3.95541 19.8412 4.05777 19.9433C4.16014 20.0454 4.28251 20.1253 4.41719 20.1779C4.55188 20.2305 4.69599 20.2548 4.8405 20.2492C4.98501 20.2437 5.12682 20.2084 5.25705 20.1455C5.38416 20.0842 5.49757 19.9979 5.5905 19.8918L12.0475 13.4598L18.5031 19.8981L18.5099 19.9049L18.5173 19.9112C18.7182 20.0828 18.9764 20.1724 19.2405 20.1622C19.5046 20.152 19.7552 20.0428 19.9422 19.8563C20.1293 19.6697 20.239 19.4195 20.2492 19.1556C20.2594 18.8917 20.1694 18.6337 19.9973 18.4333L19.991 18.4259L19.9842 18.4191L13.5297 11.9819Z" fill="#959595" stroke="#ADADAD" stroke-width="0.5"/>
</svg>
