<svg width="24" height="17" viewBox="0 0 24 17" fill="none" xmlns="http://www.w3.org/2000/svg">
<path d="M10.4717 15.1669V17H1.7434V15.1669H10.4717ZM2.18491 0V17H0V0H2.18491ZM9.31698 7.30907V9.14217H1.7434V7.30907H9.31698ZM10.3585 0V1.84478H1.7434V0H10.3585Z" fill="#5896C0"/>
<path d="M22.3245 10.3798H17.6943L16.6189 9.92445C15.4264 9.53526 14.5094 8.93979 13.8679 8.13805C13.2264 7.32853 12.9057 6.32441 12.9057 5.12569C12.9057 4.02816 13.1396 3.09799 13.6075 2.33517C14.083 1.57234 14.7547 0.992445 15.6226 0.595467C16.4981 0.198489 17.5321 0 18.7245 0H24V17H21.8151V1.84478H18.7245C17.517 1.84478 16.6075 2.14057 15.9962 2.73214C15.3925 3.32372 15.0906 4.12157 15.0906 5.12569C15.0906 5.77953 15.2226 6.36332 15.4868 6.87706C15.7585 7.3908 16.1585 7.79556 16.6868 8.09135C17.2151 8.38713 17.8717 8.53503 18.6566 8.53503H22.3358L22.3245 10.3798ZM18.6113 9.21223L14.6038 17H12.283L16.4038 9.21223H18.6113Z" fill="#5896C0"/>
</svg>
