<svg width="24" height="24" viewBox="0 0 24 24" fill="none" xmlns="http://www.w3.org/2000/svg">
<path d="M4 3H18C18.55 3 19 3.45 19 4C19 4.55 18.55 5 18 5H4C3.45 5 3 4.55 3 4C3 3.45 3.45 3 4 3ZM4 7H12C12.55 7 13 7.45 13 8C13 8.55 12.55 9 12 9H4C3.45 9 3 8.55 3 8C3 7.45 3.45 7 4 7Z" fill="#5896C0"/>
<path d="M4.125 11H19.875C20.4937 11 21 11.45 21 12C21 12.55 20.4937 13 19.875 13H4.125C3.50625 13 3 12.55 3 12C3 11.45 3.50625 11 4.125 11ZM4.125 15H13.125C13.7437 15 14.25 15.45 14.25 16C14.25 16.55 13.7437 17 13.125 17H4.125C3.50625 17 3 16.55 3 16C3 15.45 3.50625 15 4.125 15Z" fill="#5896C0"/>
<path d="M19.875 19H4.125C3.50625 19 3 19.45 3 20C3 20.55 3.50625 21 4.125 21H19.875C20.4937 21 21 20.55 21 20C21 19.45 20.4937 19 19.875 19Z" fill="#5896C0"/>
</svg>
