<svg width="24" height="24" viewBox="0 0 24 24" fill="none" xmlns="http://www.w3.org/2000/svg">
    <path d="M7.21739 11.1732C7.36232 11.0577 7.53391 11 7.73217 11C7.93044 11 8.10184 11.0577 8.24638 11.1732L12.4928 14.5566L16.7536 11.1617C16.8889 11.0539 17.058 11 17.2609 11C17.4638 11 17.6377 11.0577 17.7826 11.1732C17.9275 11.2887 18 11.4254 18 11.5834C18 11.7413 17.9275 11.8779 17.7826 11.9931L12.8986 15.873C12.8406 15.9192 12.7778 15.952 12.7101 15.9714C12.6425 15.9908 12.57 16.0003 12.4928 16C12.4155 16 12.343 15.9903 12.2754 15.9709C12.2077 15.9515 12.1449 15.9189 12.087 15.873L7.2029 11.9815C7.06763 11.8737 7 11.7409 7 11.5829C7 11.4249 7.07246 11.2884 7.21739 11.1732Z" fill="#949494"/>
</svg>
