<svg width="14" height="14" viewBox="0 0 14 14" fill="none" xmlns="http://www.w3.org/2000/svg">
<path d="M7.93982 7.00002L13.4665 1.47336C13.5757 1.34582 13.6328 1.18177 13.6263 1.01399C13.6198 0.846202 13.5503 0.687043 13.4315 0.568313C13.3128 0.449584 13.1536 0.380028 12.9859 0.373548C12.8181 0.367067 12.654 0.424138 12.5265 0.533355L6.99982 6.06002L1.47315 0.526689C1.34762 0.401153 1.17735 0.330627 0.999819 0.330627C0.822285 0.330627 0.652022 0.401153 0.526486 0.526689C0.40095 0.652224 0.330425 0.822488 0.330425 1.00002C0.330425 1.17756 0.40095 1.34782 0.526486 1.47336L6.05982 7.00002L0.526486 12.5267C0.456698 12.5865 0.400018 12.66 0.360002 12.7427C0.319987 12.8254 0.2975 12.9155 0.293954 13.0073C0.290407 13.0991 0.305878 13.1907 0.339394 13.2762C0.372911 13.3618 0.423749 13.4395 0.488719 13.5045C0.553689 13.5694 0.631387 13.6203 0.716937 13.6538C0.802487 13.6873 0.894042 13.7028 0.985855 13.6992C1.07767 13.6957 1.16776 13.6732 1.25047 13.6332C1.33318 13.5932 1.40672 13.5365 1.46649 13.4667L6.99982 7.94002L12.5265 13.4667C12.654 13.5759 12.8181 13.633 12.9859 13.6265C13.1536 13.62 13.3128 13.5505 13.4315 13.4317C13.5503 13.313 13.6198 13.1538 13.6263 12.9861C13.6328 12.8183 13.5757 12.6542 13.4665 12.5267L7.93982 7.00002Z" fill="#958B76"/>
</svg>
